<svg xmlns="http://www.w3.org/2000/svg" viewBox="0 0 23.23 20.4"><title>Asset 10</title><g id="ba94409b-1e91-4fe5-87a4-2d4d4bb04b69" data-name="Layer 2"><g id="e041c94a-aed0-4112-bdf8-908f76639749" data-name="Layer 2"><path d="M2,20.37a1.9,1.9,0,0,1-2-1.74c0-.13,0-.27,0-.4q0-6.55,0-13.1A2,2,0,0,1,2.19,2.94c.71,0,1.43,0,2.14,0,.25,0,.35.06.34.32a6.7,6.7,0,0,0,0,.76A1.65,1.65,0,0,0,6.46,5.67,1.63,1.63,0,0,0,8.14,4c0-.25,0-.51,0-.76s.06-.26.25-.26h6.46c.18,0,.26.06.25.25s0,.6,0,.91a1.62,1.62,0,0,0,1.56,1.56,1.66,1.66,0,0,0,1.87-1.34,6,6,0,0,0,0-1.09c0-.22.07-.29.3-.29.83,0,1.67,0,2.5,0a1.91,1.91,0,0,1,1.87,2c0,2.26,0,4.52,0,6.78s0,4.38,0,6.57a2,2,0,0,1-2.15,2.13H2.76l-.43,0C2.23,20.21,2.13,20.19,2,20.37ZM1.6,18.62c.08.23.28.15.43.15H21.16c.39,0,.45-.13.45-.48,0-3.43,0-6.87,0-10.31,0-.48,0-.49-.49-.49H2.1c-.47,0-.47,0-.47.47q0,4.86,0,9.72c0,.28,0,.56,0,.83Z" fill="#58595b"/><path d="M7.32,2.45c0,.49,0,1,0,1.48a.82.82,0,0,1-.93.9.8.8,0,0,1-.88-.91q0-1.52,0-3A.81.81,0,0,1,6.41,0a.82.82,0,0,1,.91.9c0,.52,0,1,0,1.56Z" fill="#58595b"/><path d="M15.91,2.4c0-.51,0-1,0-1.52A.82.82,0,0,1,16.83,0a.8.8,0,0,1,.89.87q0,1.56,0,3.11a.79.79,0,0,1-.86.85A.81.81,0,0,1,15.91,4c0-.53,0-1.06,0-1.59Z" fill="#58595b"/><path d="M2,20.37c.1-.18.19-.17.29,0Z" fill="#58595b"/><path d="M1.6,18.55v0Z" fill="#58595b"/><path d="M15.25,11c0,.39,0,.77,0,1.16,0,.19,0,.29-.26.28H12.67c-.21,0-.27-.09-.26-.28,0-.76,0-1.52,0-2.28,0-.23.1-.29.3-.28.75,0,1.5,0,2.25,0,.25,0,.31.1.3.32S15.25,10.64,15.25,11Z" fill="#58595b"/><path d="M15.09,16.68a22,22,0,0,1-2.31,0H12.7c-.13,0-.29.08-.28-.14,0-.85-.05-1.7,0-2.54l.2-.11h.22l2.16,0c.12,0,.22,0,.22.17q0,1.3,0,2.6s0,0,0,0Z" fill="#58595b"/><path d="M10.79,14a14.77,14.77,0,0,1,0,2.69h-.09q-1.26.06-2.52,0H8C8,16.63,8,16.53,8,16.45c0-.77,0-1.54,0-2.31,0-.19.05-.29.26-.29l2.27,0A.51.51,0,0,0,10.79,14Z" fill="#58595b"/><path d="M17,13.88c.77,0,1.54,0,2.31,0a.24.24,0,0,0,.21.1.23.23,0,0,0,.14.22v2.39a.45.45,0,0,0-.3.09l-2.28,0c-.15,0-.25,0-.25-.22,0-.83,0-1.67,0-2.5,0,0,0-.06,0-.09Z" fill="#58595b"/><path d="M19.53,12.42h-.58a2.37,2.37,0,0,0-1.59,0H17l-.12-.11q0-1.31,0-2.61h.06L17,9.61c.87,0,1.74,0,2.61,0l.08.08v2.54A.2.2,0,0,0,19.53,12.42Z" fill="#58595b"/><path d="M3.56,12.24V9.7l.08-.08c.87,0,1.74,0,2.61,0l.13.08v2.62l-.12.11H6.1a4.36,4.36,0,0,0-1.59-.11.25.25,0,0,0-.22.11H4C3.89,12.27,3.71,12.29,3.56,12.24Z" fill="#58595b"/><path d="M8.06,12.42c-.13-.07-.08-.19-.08-.29,0-.73,0-1.47,0-2.2,0-.24.06-.35.32-.34.73,0,1.47,0,2.2,0,.22,0,.33,0,.33.3,0,.73,0,1.47,0,2.2a.75.75,0,0,1-.62.22c-.58,0-1.15,0-1.73,0C8.32,12.31,8.17,12.29,8.06,12.42Z" fill="#58595b"/><path d="M3.85,13.87a.08.08,0,0,1,.07,0L4,14l.14-.1a19.62,19.62,0,0,1,2,0v0l.06.06h.12v.29c-.14.1-.12.25-.12.39,0,.49,0,1,0,1.48,0,.32-.09.46-.43.45-.59,0-1.18,0-1.77,0-.32,0-.44-.12-.42-.43A5.81,5.81,0,0,1,3.85,13.87Z" fill="#58595b"/><path d="M3.85,13.87a5.81,5.81,0,0,0-.22,2.29c0,.31.1.43.42.43.59,0,1.18,0,1.77,0,.34,0,.44-.14.43-.45,0-.49,0-1,0-1.48,0-.14,0-.29.12-.39,0,.72,0,1.45,0,2.17,0,.21-.08.27-.27.27H3.8c-.21,0-.26-.09-.26-.28,0-.77,0-1.55,0-2.32C3.53,13.86,3.64,13.82,3.85,13.87Z" fill="#58595b"/><path d="M8.06,12.42c.1-.14.26-.11.4-.11.58,0,1.15,0,1.73,0a.75.75,0,0,0,.62-.22c0,.19,0,.36-.24.35C9.73,12.42,8.89,12.43,8.06,12.42Z" fill="#58595b"/><path d="M4.29,12.42a.25.25,0,0,1,.22-.11,4.36,4.36,0,0,1,1.59.11Z" fill="#58595b"/><path d="M17.35,12.42a2.37,2.37,0,0,1,1.59,0Z" fill="#58595b"/><path d="M3.56,12.24c.15.05.32,0,.43.19C3.84,12.37,3.56,12.62,3.56,12.24Z" fill="#58595b"/><path d="M19.67,14.2a.23.23,0,0,1-.14-.22v-.09C19.78,13.9,19.65,14.08,19.67,14.2Z" fill="#58595b"/><path d="M19.53,13.88V14a.24.24,0,0,1-.21-.1Z" fill="#58595b"/><path d="M19.53,12.42a.2.2,0,0,1,.14-.18C19.69,12.35,19.69,12.44,19.53,12.42Z" fill="#58595b"/><path d="M6.18,13.92v0c.09,0,.2,0,.2.11H6.25Z" fill="#58595b"/><path d="M19.37,16.68a.45.45,0,0,1,.3-.09C19.61,16.75,19.48,16.68,19.37,16.68Z" fill="#58595b"/><path d="M16.86,12.31l.12.11C16.89,12.44,16.85,12.4,16.86,12.31Z" fill="#58595b"/><path d="M4.14,13.88,4,14v-.09Z" fill="#58595b"/><path d="M6.25,12.42l.12-.11C6.38,12.4,6.34,12.44,6.25,12.42Z" fill="#58595b"/><path d="M10.79,14a.51.51,0,0,1-.28-.1C10.61,13.87,10.74,13.82,10.79,14Z" fill="#58595b"/><path d="M12.65,13.88l-.2.11C12.46,13.85,12.56,13.88,12.65,13.88Z" fill="#58595b"/><path d="M6.37,9.69l-.13-.08C6.31,9.61,6.36,9.61,6.37,9.69Z" fill="#58595b"/><path d="M15.09,16.68h0Z" fill="#58595b"/><path d="M12.7,16.68h0Z" fill="#58595b"/><path d="M10.66,16.68h0Z" fill="#58595b"/><path d="M8,16.68H8Z" fill="#58595b"/><path d="M17,13.88h0Z" fill="#58595b"/><path d="M12.86,13.88h0Z" fill="#58595b"/><path d="M4,13.88V14l-.08-.1A.07.07,0,0,1,4,13.88Z" fill="#58595b"/><path d="M16.91,9.7h-.06a.07.07,0,0,1,.05-.09Z" fill="#58595b"/><path d="M3.64,9.61l-.08.08A.07.07,0,0,1,3.64,9.61Z" fill="#58595b"/><path d="M17.11,12.42h0Z" fill="#58595b"/><path d="M19.67,9.7l-.08-.08A.07.07,0,0,1,19.67,9.7Z" fill="#58595b"/><path d="M16.91,9.7V9.61H17Z" fill="#58595b"/><path d="M6.18,13.92l.06.06Z" fill="#58595b"/></g></g></svg>