<svg xmlns="http://www.w3.org/2000/svg" viewBox="0 0 18.09 18.09"><title>Asset 2</title><g id="59f05604-0397-45b9-b659-1f7bcae012b9" data-name="Layer 2"><g id="da013875-3d27-4f28-a561-243d1a2aa72d" data-name="Layer 2"><circle cx="9.04" cy="9.04" r="8.45" fill="none" stroke="#28265e" stroke-miterlimit="10" stroke-width="1.19"/><path d="M4.67,11.19a4.87,4.87,0,0,1,3.4-6.91" fill="none" stroke="#28265e" stroke-miterlimit="10" stroke-width="1.19"/><path d="M10.94,4.56a14.4,14.4,0,0,0-4.21,2l1-2.21L7,2A14.39,14.39,0,0,0,10.94,4.56Z" fill="#28265e"/><path d="M13.35,6.77a4.87,4.87,0,0,1-3.71,7.1" fill="none" stroke="#28265e" stroke-miterlimit="10" stroke-width="1.19"/><path d="M6.8,13.36a14.41,14.41,0,0,0,4.36-1.64L10,13.84l.48,2.36A14.39,14.39,0,0,0,6.8,13.36Z" fill="#28265e"/></g></g></svg>