<svg xmlns="http://www.w3.org/2000/svg" viewBox="0 0 24.01 24.01"><title>Asset 6</title><g id="a82b95c8-3cfd-476b-ac03-125a56956828" data-name="Layer 2"><g id="09ec38cf-de19-42af-83b2-056dc1ef052f" data-name="Layer 2"><circle cx="12.01" cy="12.01" r="11.54" fill="none" stroke="#fff" stroke-miterlimit="10" stroke-width="0.93"/><path d="M14.23,7.82c-.68,2.54-1.35,5-2,7.5-.11.4-.32.84,0,1.2s.83.19,1.25.08.66-.23,1-.35a.25.25,0,0,1,.31,0,.2.2,0,0,1,0,.3A7,7,0,0,1,11,19a2.1,2.1,0,0,1-.88,0,1.19,1.19,0,0,1-.95-1.6q.87-3.29,1.75-6.58c.24-.89-.08-1.31-1-1.27-.5,0-.81-.21-.84-.63s.22-.7.73-.74Z" fill="#fff"/><path d="M14.91,5.08a1.3,1.3,0,0,1-1.32,1.31,1.32,1.32,0,1,1,0-2.63A1.3,1.3,0,0,1,14.91,5.08Z" fill="#fff"/></g></g></svg>