<svg xmlns="http://www.w3.org/2000/svg" viewBox="0 0 9.51 9.51"><title>Asset 1</title><g id="261158b7-803f-4706-985c-7327e684a1bc" data-name="Layer 2"><g id="4b62844a-b2fe-411d-bd39-27889cbbc2fb" data-name="Layer 2"><circle cx="4.75" cy="4.75" r="4.75" fill="#28265e"/><path d="M5.85,3l-1,3.69c-.05.2-.16.41,0,.59s.41.09.61,0,.33-.12.49-.17a.12.12,0,0,1,.15,0,.1.1,0,0,1,0,.15A3.45,3.45,0,0,1,4.26,8.5a1,1,0,0,1-.43,0,.59.59,0,0,1-.47-.78l.86-3.23c.12-.44,0-.64-.48-.63-.25,0-.4-.1-.42-.31s.11-.35.36-.36Z" fill="#fff"/><circle cx="5.54" cy="1.65" r="0.65" transform="translate(3.86 7.17) rotate(-89.71)" fill="#fff"/></g></g></svg>