<svg xmlns="http://www.w3.org/2000/svg" viewBox="0 0 16.02 17.81"><title>Asset 1</title><g id="74153842-ab3e-476c-9145-cce51c7a1162" data-name="Layer 2"><g id="2e26367b-246b-4c01-bd10-38551bc14d07" data-name="Layer 2"><path d="M0,7.06A7,7,0,0,1,13.89,5.53a6.88,6.88,0,0,1-1.77,6.34c-.06.07-.05.1,0,.16l1.49,1.72,1.78,2.07A2.52,2.52,0,0,1,16,17a1.15,1.15,0,0,1,0,.39.49.49,0,0,1-.65.42,1.59,1.59,0,0,1-.76-.46c-.41-.41-.77-.87-1.15-1.31l-2.19-2.54a2.79,2.79,0,0,1-.34-.48c0-.06-.05-.08-.12,0a6.68,6.68,0,0,1-2.67,1,6.89,6.89,0,0,1-5.47-1.45A6.89,6.89,0,0,1,.11,8.27c0-.16-.05-.33-.07-.5S0,7.28,0,7.06ZM7,1.23A5.82,5.82,0,0,0,3.16,2.64,5.54,5.54,0,0,0,1.31,8.52a5.83,5.83,0,0,0,5.25,4.3,6,6,0,0,0,3.77-1,5.75,5.75,0,0,0,2.35-6.65A5.93,5.93,0,0,0,7,1.23Z" fill="#fff"/></g></g></svg>