<svg xmlns="http://www.w3.org/2000/svg" viewBox="0 0 13.73 11.59"><title>Asset 2</title><g id="00b505f0-3304-469d-a4e4-cf8f5ba64ce4" data-name="Layer 2"><g id="f3302094-3dea-4125-bba5-0717c1fd9171" data-name="Layer 2"><path d="M13.73,11.1s0,.06-.05.09a.64.64,0,0,1-.56.39H5a.66.66,0,0,1-.76-.75c0-.81,0-1.63,0-2.44a.64.64,0,1,1,1.29,0c0,.59,0,1.18,0,1.77,0,.11,0,.13.13.13h6.61c.1,0,.13,0,.13-.13q0-4.38,0-8.75c0-.1,0-.13-.13-.13H5.71c-.1,0-.13,0-.13.13,0,.6,0,1.2,0,1.8a.64.64,0,0,1-1,.56.6.6,0,0,1-.32-.54c0-.87,0-1.74,0-2.61A.63.63,0,0,1,4.91,0h8a.76.76,0,0,1,.84.51Z" fill="#fff"/><path d="M0,5.64s0,0,0-.07a.64.64,0,0,1,.59-.41H8.07S8,5.09,8,5.07c-.25-.26-.52-.51-.76-.77a.64.64,0,0,1,.34-1.06.61.61,0,0,1,.52.12l.13.12L10,5.28a.65.65,0,0,1,0,1L8.22,8.14a.64.64,0,0,1-.93.06.64.64,0,0,1,0-.93c.23-.24.47-.48.71-.71l.11-.08,0,0H.77A.7.7,0,0,1,0,6H0Z" fill="#fff"/></g></g></svg>