<svg xmlns="http://www.w3.org/2000/svg" viewBox="0 0 15.11 15.11"><title>Asset 1</title><g id="5424cfcb-8173-4a76-aa52-d0776a4fddc4" data-name="Layer 2"><g id="e7ecbea7-3f69-4116-9151-d22112344c89" data-name="Layer 2"><path d="M7.15,0h.79S8,0,8,0a7.4,7.4,0,0,1,2.47.57,7.58,7.58,0,0,1,4.63,6.34.61.61,0,0,0,0,.22V8s0,0,0,0A7.46,7.46,0,0,1,14.71,10a7.58,7.58,0,0,1-6.53,5.12.83.83,0,0,0-.25,0h-.8s0,0-.05,0a7.51,7.51,0,0,1-4.54-1.9A7.47,7.47,0,0,1,0,8.19.69.69,0,0,0,0,8V7.14s0,0,0,0a6.72,6.72,0,0,1,.1-.83,7.42,7.42,0,0,1,2-3.92A7.45,7.45,0,0,1,6.92,0,.75.75,0,0,0,7.15,0Zm.41.51a7,7,0,1,0,7,7.05A7.06,7.06,0,0,0,7.56.51Z" fill="#fff"/><path d="M7.53,11.63c-.66,0-1.31,0-2,0a4.78,4.78,0,0,1-1.22-.15A1.14,1.14,0,0,1,4,11.29a.58.58,0,0,1-.24-.46,2.86,2.86,0,0,1,.75-2.14,2.9,2.9,0,0,1,1.84-.94l.28,0c.67,0,1.33,0,2,0A2.91,2.91,0,0,1,11.28,10a3.19,3.19,0,0,1,.07.86.57.57,0,0,1-.27.46,1.57,1.57,0,0,1-.62.23,8,8,0,0,1-1.41.1Z" fill="#fff"/><path d="M7.55,7.53A2.36,2.36,0,0,1,5.21,5.78,2.27,2.27,0,0,1,6.67,3.1,2.36,2.36,0,0,1,9.56,4.23a2.3,2.3,0,0,1-2,3.3Z" fill="#fff"/></g></g></svg>